<?xml version="1.0" encoding="UTF-8" standalone="no"?>
<svg width="20px" height="20px" viewBox="0 0 20 20" version="1.1" xmlns="http://www.w3.org/2000/svg" xmlns:xlink="http://www.w3.org/1999/xlink"><defs></defs><g stroke="none" stroke-width="1" fill="none" fill-rule="evenodd"><g transform="translate(-778.000000, -214.000000)" fill="#434E58"><path d="M778,214 L798,214 L798,234 L778,234 L778,214 Z M795.860693,224.5671 L794.406905,225.499285 C794.406905,225.499285 794.094135,224.705881 793.199224,224.706709 C792.304313,224.707537 792.303305,225.495537 792.303305,225.495537 C792.303305,225.495537 792.131991,226.279763 793.823291,226.810749 C796.659369,227.768344 796.402665,229.771005 796.402665,229.771005 C796.402665,229.771005 796.535605,232.416241 793.247897,232.416241 C790.662733,232.416241 789.896084,230.502681 789.896084,230.502681 L791.402578,229.61312 C791.402578,229.61312 791.953079,230.765098 793.241538,230.765098 C793.234973,230.765098 794.545403,230.765098 794.545403,229.807297 C794.545403,229.807296 794.757027,229.115583 792.932387,228.482908 C790.977055,227.79502 790.441054,226.64723 790.441054,225.545322 C790.441054,224.443413 791.234328,223.066371 793.234973,223.066371 C795.235618,223.066371 795.860693,224.5671 795.860693,224.5671 Z M787.004194,223.194756 L788.868109,223.189268 L788.858938,229.772913 C788.858938,229.772913 788.927225,232.410293 786.118268,232.410293 C783.86059,232.410293 783.25792,230.712559 783.25792,230.712559 L784.777849,229.780093 C784.777849,229.780093 785.092276,230.712559 785.978946,230.743288 C786.995308,230.761871 786.995308,229.761177 786.995308,229.761177 L787.004194,223.194756 Z"></path></g></g></svg>