<?xml version="1.0" encoding="UTF-8" standalone="no"?>
<svg width="20px" height="32px" viewBox="0 0 20 32" version="1.1" xmlns="http://www.w3.org/2000/svg" xmlns:xlink="http://www.w3.org/1999/xlink">
    <!-- Generator: Sketch 3.7.2 (28276) - http://www.bohemiancoding.com/sketch -->
    <title>location</title>
    <desc>Created with Sketch.</desc>
    <defs></defs>
    <g stroke="none" stroke-width="1" fill="none" fill-rule="evenodd">
        <g transform="translate(-925.000000, -454.000000)">
            <g transform="translate(925.000000, 454.000000)">
                <path d="M10,0 C4.477,0 0,4.477 0,10 C0,20 10,32 10,32 C10,32 20,20 20,10 C20,4.477 15.523,0 10,0 L10,0 Z M10,17 C6.13366667,17 3,13.8663333 3,10 C3,6.13366667 6.13366667,3 10,3 C13.8663333,3 17,6.13366667 17,10 C17,13.8663333 13.8663333,17 10,17 L10,17 Z" fill="#6BC5E5"></path>
                <circle fill="#FFFFFF" cx="10" cy="10" r="7"></circle>
            </g>
        </g>
    </g>
</svg>