<?xml version="1.0" encoding="UTF-8"?>
<svg width="40px" height="40px" viewBox="0 0 40 40" version="1.1" xmlns="http://www.w3.org/2000/svg" xmlns:xlink="http://www.w3.org/1999/xlink">
<symbol id="blog" viewBox="0 0 40 40">
                    <path d="M36.472,6.472 L33.5,3.5 L37,1.33094761e-14 C37,1.33094761e-14 40,-0.062 40,2.938 L36.472,6.472 L36.472,6.472 Z M4,8 L4,36 L32,36 L32,17 L36,13 L36,36 C36,38.208 34.208,40 32,40 L4,40 C1.792,40 0,38.208 0,36 L0,8 C0,5.792 1.792,4 4,4 L27,4 L23,8 L4,8 L4,8 Z M14,26 L14,23 L15.5,21.5 L18.498,24.498 L17,26 L14,26 L14,26 Z M34.476,8.476 L19.496,23.496 L16.5,20.5 L31.5,5.5 L34.476,8.476 L34.476,8.476 Z"></path>
</symbol>
</svg>