<?xml version="1.0" encoding="UTF-8" standalone="no"?>
<svg width="45px" height="41px" viewBox="0 0 45 41" version="1.1" xmlns="http://www.w3.org/2000/svg" xmlns:xlink="http://www.w3.org/1999/xlink">
    <defs></defs>
    <g stroke="none" stroke-width="1" fill="none" fill-rule="evenodd">
        <g transform="translate(-217.000000, -1.000000)" fill="#98A6AE">
            <g>
                <g transform="translate(217.000000, 1.000000)">
                    <path d="M18.75,5.02659574 C16.77125,5.02659574 14.86,5.33824468 13.07125,5.95400266 C11.395,6.53080452 9.9025,7.34511303 8.6375,8.37430851 C6.2925,10.2819016 5,12.7260838 5,15.2532048 C5,16.6669348 5.39375,18.0391955 6.16875,19.3335439 C6.97625,20.6819282 8.19625,21.9172141 9.695,22.9049402 C10.88375,23.6890891 11.685,24.9444814 11.89625,26.3582114 C11.93125,26.5932048 11.96,26.8294548 11.98125,27.0669614 C12.0875,26.9676862 12.1925,26.8658976 12.29875,26.7603391 C13.24125,25.8165957 14.5125,25.2950864 15.8275,25.2950864 C16.03625,25.2950864 16.24625,25.3089096 16.45625,25.3352992 C17.2125,25.4320612 17.985,25.4810705 18.75125,25.4810705 C20.73,25.4810705 22.64125,25.1694215 24.43,24.5536636 C26.10625,23.9768617 27.59875,23.1625532 28.86375,22.1333577 C31.20875,20.2257646 32.50125,17.7815824 32.50125,15.2544614 C32.50125,12.7273404 31.21,10.2831582 28.86375,8.37556516 C27.59875,7.34636968 26.10625,6.53206117 24.43,5.95525931 C22.64125,5.33950133 20.73,5.02785239 18.75125,5.02785239 L18.75,5.02659574 Z M18.75,0 L18.75,0 C29.105,0 37.5,6.82988697 37.5,15.2544614 C37.5,23.6790359 29.105,30.5089229 18.75,30.5089229 C17.755,30.5089229 16.78,30.4448338 15.82625,30.3241955 C11.79875,34.3567819 7.1475,35.0806117 2.5,35.1861702 L2.5,34.1997008 C5.01,32.9681848 7.03125,30.7250665 7.03125,28.1627593 C7.03125,27.8046144 7.00375,27.4540093 6.9525,27.1109441 C2.7125,24.3149003 0,20.0422939 0,15.2557181 C0,6.83114362 8.395,0.00125664894 18.75,0.00125664894 L18.75,0 Z M38.90625,34.1921609 C38.90625,36.3887832 40.325,38.3114561 42.5,39.3670412 L42.5,40.212766 C38.47125,40.1222872 34.77375,39.5015027 31.28375,36.0457181 C30.4575,36.1500199 29.6125,36.2040559 28.75,36.2040559 C25.02125,36.2040559 21.585,35.1924535 18.84375,33.4934641 C24.495,33.4733577 29.83,31.6537301 33.87625,28.3613098 C35.915,26.7025332 37.525,24.7547274 38.6575,22.5744415 C39.85875,20.2622074 40.46875,17.8004322 40.46875,15.2544614 C40.46875,14.8447939 40.45125,14.436383 40.42,14.0304854 C43.255,16.3841888 45,19.5924136 45,23.1286237 C45,27.2315824 42.65,30.8934574 38.975,33.289887 C38.93,33.5839428 38.90625,33.8855386 38.90625,34.1921609 L38.90625,34.1921609 Z"></path>
                </g>
            </g>
        </g>
    </g>
</svg>