<?xml version="1.0" encoding="UTF-8"?>
<svg width="51px" height="35px" version="1.1" xmlns="http://www.w3.org/2000/svg" xmlns:xlink="http://www.w3.org/1999/xlink">
<symbol id="portfolio" viewBox="0 0 51 35">
                    <path d="M50.6509687,16.3604355 L37.9009687,0.591341042 C37.5981562,0.217613503 37.14075,0 36.65625,0 L14.34375,0 C13.85925,0 13.4018438,0.217613503 13.0990312,0.591341042 L0.34903125,16.3604355 C0.12271875,16.6395485 0,16.9880455 0,17.3460039 L0,31.5381889 C0,33.2806738 1.42640625,34.6920078 3.1875,34.6920078 L47.8125,34.6920078 C49.5735938,34.6920078 51,33.2806738 51,31.5381889 L51,17.3460039 C51,16.9880455 50.8772812,16.6411254 50.6509687,16.3604355 L50.6509687,16.3604355 Z M47.8125,18.9229133 L36.65625,18.9229133 L30.28125,25.2305511 L20.71875,25.2305511 L14.34375,18.9229133 L3.1875,18.9229133 L3.1875,17.8994991 L15.1103437,3.15381889 L35.89125,3.15381889 L47.8140937,17.8994991 L47.8140937,18.9229133 L47.8125,18.9229133 Z"></path>
                    <path d="M36.65625,9.46145667 L14.34375,9.46145667 C13.464,9.46145667 12.75,8.75500124 12.75,7.88454723 C12.75,7.01409321 13.464,6.30763778 14.34375,6.30763778 L36.65625,6.30763778 C37.536,6.30763778 38.25,7.01409321 38.25,7.88454723 C38.25,8.75500124 37.536,9.46145667 36.65625,9.46145667 L36.65625,9.46145667 Z"></path>
                    <path d="M39.84375,15.7690945 L11.15625,15.7690945 C10.2765,15.7690945 9.5625,15.062639 9.5625,14.192185 C9.5625,13.321731 10.2765,12.6152756 11.15625,12.6152756 L39.84375,12.6152756 C40.7235,12.6152756 41.4375,13.321731 41.4375,14.192185 C41.4375,15.062639 40.7235,15.7690945 39.84375,15.7690945 L39.84375,15.7690945 Z"></path>
</symbol>
</svg>