<?xml version="1.0" encoding="UTF-8" standalone="no"?>
<svg width="45px" height="46px" viewBox="0 0 45 46" version="1.1" xmlns="http://www.w3.org/2000/svg" xmlns:xlink="http://www.w3.org/1999/xlink">
    <defs>
        <filter x="-50%" y="-50%" width="200%" height="200%" filterUnits="objectBoundingBox" id="filter-1">
            <feGaussianBlur stdDeviation="0" in="SourceGraphic" result="blur"></feGaussianBlur>
        </filter>
        <radialGradient cx="50%" cy="50%" fx="50%" fy="50%" r="50%" id="radialGradient-2">
            <stop stop-color="#C9D2D7" offset="0%"></stop>
            <stop stop-color="#8B989F" offset="100%"></stop>
        </radialGradient>
        <linearGradient x1="5.4684971%" y1="73.3160546%" x2="90.955278%" y2="23.5720894%" id="linearGradient-3">
            <stop stop-color="#434E58" offset="0%"></stop>
            <stop stop-color="#38424B" offset="100%"></stop>
        </linearGradient>
    </defs>
    <g stroke="none" stroke-width="1" fill="none" fill-rule="evenodd">
        <g>
            <path d="M36.6774855,37 L40.4109747,40.7334892 C40.4109747,40.7334892 41.9292976,42.2518121 40.0905549,44.0905549 C38.2518121,45.9292976 36.7334892,44.4109747 36.7334892,44.4109747 L33,40.6774855 L36.6774855,37 L36.6774855,37 Z" fill-opacity="0.5" fill="#B8C0C7" filter="url(#filter-1)"></path>
            <path d="M39.209638,35.8224356 L43.628803,40.2522676 C43.628803,40.2522676 45.4259743,42.0537768 43.2495363,44.2354682 C41.0730984,46.4171596 39.2759272,44.6156504 39.2759272,44.6156504 L34.8567622,40.1858184 L39.209638,35.8224356 L39.209638,35.8224356 Z" fill="#98A6AE"></path>
            <ellipse fill="url(#radialGradient-2)" cx="22.54497" cy="22.5993889" rx="21.9853431" ry="22.0384112"></ellipse>
            <ellipse stroke="#E7F7FF" stroke-width="2" opacity="0.619986007" fill="#CBCFD8" cx="22.54497" cy="22.5993889" rx="17.5882745" ry="17.6307289"></ellipse>
            <path d="M22.54497,36.7039721 C30.3159586,36.7039721 36.6155896,30.3891351 36.6155896,22.5993889 C36.6155896,14.8096427 30.3159586,8.49480576 22.54497,8.49480576 C14.7739814,8.49480576 8.47435043,14.8096427 8.47435043,22.5993889 C8.47435043,30.3891351 14.7739814,36.7039721 22.54497,36.7039721 Z M15.9493671,15.9878656 C15.7619672,15.9878656 13.1982961,18.9331634 13.1982961,23.0322298 C13.1982961,27.1312961 15.7979759,29.2109123 15.9493671,29.2109123 C16.1007583,29.2109122 13.8782615,26.4041743 13.8782615,23.0322295 C13.8782615,19.6602848 16.136767,15.9878655 15.9493671,15.9878656 Z" fill="url(#linearGradient-3)"></path>
        </g>
    </g>
</svg>