<?xml version="1.0" encoding="UTF-8" standalone="no"?>
<svg width="20px" height="18px" viewBox="0 0 20 18" version="1.1" xmlns="http://www.w3.org/2000/svg" xmlns:xlink="http://www.w3.org/1999/xlink">
    <defs></defs>
    <g stroke="none" stroke-width="1" fill="none" fill-rule="evenodd">
        <g transform="translate(-778.000000, -361.000000)" fill="#434E58">
            <path d="M778,365.726892 L780.771368,362.555762 L784.294387,361.007457 L791.741438,361 L795.207564,362.522805 L798,365.691066 L788.037572,379.047188 L778,365.726892 Z M779.209486,365.850292 L780.965439,363.454574 L783.860651,364.827046 L781.842498,367.860636 L779.209486,365.850292 Z M782.468065,362.844508 L785.060137,361.721102 L790.965631,361.685547 L793.497182,362.845217 L790.943327,364.063516 L785.110187,364.070143 L782.468065,362.844508 Z M792.104713,364.834915 L794.992709,363.471021 L796.752625,365.831183 L794.223085,367.84277 L792.104713,364.834915 Z M783.149538,368.472951 L785.13681,364.980864 L790.928478,364.99666 L792.82547,368.436744 L783.149538,368.472951 Z M783.35666,369.621499 L792.593796,369.596474 L788.020427,377.807347 L783.35666,369.621499 Z M790.0626,375.689863 L794.007385,369.23867 L795.617151,367.943935 L790.0626,375.689863 Z M780.382941,367.942633 L781.920768,369.147739 L785.944651,375.716248 L780.382941,367.942633 Z"></path>
        </g>
    </g>
</svg>