<?xml version="1.0" encoding="UTF-8" standalone="no"?>
<svg width="12px" height="28px" viewBox="0 0 12 28" version="1.1" xmlns="http://www.w3.org/2000/svg" xmlns:xlink="http://www.w3.org/1999/xlink">
    <defs></defs>
    <g stroke="none" stroke-width="1" fill="none" fill-rule="evenodd">
        <g transform="translate(-782.000000, -389.000000)" fill="#434E58">
            <g transform="translate(782.000000, 389.000000)">
                <path d="M6.65758232,6.00521682 L7.31914894,3.29560887 L10.5531915,0 L11.3191489,0.591519541 L8.5106383,3.71812283 L7.83063147,6.04375689 C10.2490629,6.1636592 12,6.51476617 12,6.92922891 C12,7.44259455 9.3137085,7.85875962 6,7.85875962 C2.6862915,7.85875962 0,7.44259455 0,6.92922891 C0,6.41586328 2.6862915,5.9996982 6,5.9996982 C6.22222275,5.9996982 6.44162384,6.00156981 6.65758232,6.00521682 Z"></path>
                <path d="M0,7.94748755 L1.19148936,20.2848951 C1.19148936,20.2848951 1.87234043,21.2989286 5.87234043,21.2989286 C9.87234043,21.2989286 10.4680851,20.2848951 10.4680851,20.2848951 L11.8297872,7.86298476 C11.8297872,7.86298476 9.61702128,8.70801268 6.12765957,8.70801268 C2.63829787,8.70801268 0,7.94748755 0,7.94748755 Z"></path>
                <path d="M1.61702128,21.4721593 C1.61702128,21.4721593 2.9787234,22.1481817 5.95744681,22.1481817 C8.93617021,22.1481817 10.0425532,21.3876566 10.0425532,21.3876566 L9.36170213,22.4861928 L9.10638298,26.7113324 C9.10638298,26.7113324 8.5106383,27.6408631 6.12765957,27.6408631 C3.74468085,27.6408631 2.55319149,26.6268296 2.55319149,26.6268296 L2.29787234,22.5706956 L1.61702128,21.4721593 Z"></path>
            </g>
        </g>
    </g>
</svg>