<?xml version="1.0" encoding="UTF-8" standalone="no"?>
<svg width="20px" height="20px" viewBox="0 0 20 20" version="1.1" xmlns="http://www.w3.org/2000/svg" xmlns:xlink="http://www.w3.org/1999/xlink">
    <defs></defs>
    <g stroke="none" stroke-width="1" fill="none" fill-rule="evenodd">
        <g transform="translate(-778.000000, -240.000000)" fill="#434E58">
            <path d="M786.556302,252.634566 C786.322385,252.287948 785.974485,251.925473 785.458221,251.594157 C783.121144,250.023759 783.234202,248.814062 783.234202,248.814062 C783.234202,245.93926 789.177327,243.75072 791.08286,243.75072 C792.988393,243.75072 793.29808,244.727217 793.29808,245.124294 C793.29808,247.178432 790.040392,248.814062 788.29609,248.773025 C786.551789,248.731987 786.558595,248.092259 786.558595,248.092259 C786.558595,248.092259 786.42936,248.044534 786.370332,248.094761 C786.311303,248.144988 786.344236,248.274657 786.344236,248.274657 C786.344236,248.274657 786.58741,249.409212 788.761628,249.409213 C794.07566,249.409212 794.352525,245.003725 794.352525,245.003725 C794.352525,245.003725 794.666063,242.546584 790.806274,242.546584 C785.458221,242.656724 781.726708,246.671344 781.726708,248.675533 C781.726708,250.679722 785.638108,252.835377 785.638108,252.835377 C785.638108,252.835377 782.398924,254.132729 782.377734,256.161636 C782.362049,257.663383 783.914485,257.553905 783.914485,257.553905 C786.966702,257.553905 787.022652,254.206306 787.022652,254.206306 C787.022652,254.206306 787.094452,253.645579 786.743133,252.951992 L786.796645,253.04291 C786.796645,253.04291 787.321215,252.918288 787.831142,252.918288 C790.227367,252.918288 790.362575,254.428081 790.351021,254.535446 C790.351021,255.041533 789.671521,255.588402 789.671521,255.588402 C789.671521,255.588402 789.633701,255.663123 789.679768,255.70396 C789.768446,255.767757 789.904285,255.707052 789.904285,255.707052 C789.904285,255.707052 790.777112,255.265844 790.777113,254.428081 C790.777113,253.590317 789.995032,252.282203 788.063929,252.282203 C786.796645,252.282203 786.459383,252.469898 786.459383,252.469898 L786.556302,252.634566 Z M786.080481,253.411093 C786.080481,253.411093 786.201366,253.684822 786.201366,254.155959 C786.201366,254.934943 785.201661,256.563762 784.111551,256.563762 C784.018207,256.563762 783.563064,256.563762 783.563064,256.048232 C783.563064,254.689441 786.080481,253.411093 786.080481,253.411093 Z M788,260 C793.522847,260 798,255.522847 798,250 C798,244.477153 793.522847,240 788,240 C782.477153,240 778,244.477153 778,250 C778,255.522847 782.477153,260 788,260 Z"></path>
        </g>
    </g>
</svg>